<svg width="12" height="11" viewBox="0 0 12 11" fill="none" xmlns="http://www.w3.org/2000/svg">
<path fill-rule="evenodd" clip-rule="evenodd" d="M8.20105 6.36675C8.09605 6.46537 8.04805 6.60613 8.07305 6.74593L8.51304 9.20301L6.20809 8.04246C6.0771 7.97734 5.9221 7.97734 5.7921 8.04246L3.48715 9.20301L3.92714 6.74593C3.95214 6.60613 3.90414 6.46537 3.79914 6.36675L1.93419 4.62592L4.51113 4.2678C4.65713 4.24673 4.78212 4.15959 4.84712 4.0332L6.0001 1.79828L7.15207 4.0332C7.21807 4.15959 7.34307 4.24673 7.48906 4.2678L10.066 4.62592L8.20105 6.36675ZM11.766 4.90361C11.978 4.70731 12.053 4.41718 11.962 4.1481C11.87 3.87807 11.632 3.68657 11.339 3.64539L8.25205 3.21641C8.17305 3.20492 8.10705 3.158 8.07205 3.09001L6.69108 0.411746C6.56108 0.157996 6.29609 0 5.9991 0C5.7041 0 5.43911 0.157996 5.30811 0.411746L3.92814 3.09001C3.89314 3.158 3.82614 3.20492 3.74715 3.21641L0.660213 3.64539C0.368219 3.68657 0.130224 3.87807 0.0382263 4.1481C-0.0527717 4.41718 0.0212267 4.70731 0.233222 4.90361L2.46717 6.98819C2.52417 7.04182 2.55017 7.11746 2.53617 7.19215L2.01018 10.1366C1.95918 10.4153 2.07618 10.692 2.31518 10.8577C2.45017 10.9524 2.60917 10.9994 2.76817 10.9994C2.89016 10.9994 3.01416 10.9726 3.12716 10.9141L5.8881 9.52474C5.9551 9.48931 6.0411 9.48836 6.11209 9.52474L8.87303 10.9132C9.13203 11.0463 9.44502 11.0252 9.68402 10.8577C9.92401 10.692 10.041 10.4153 9.99001 10.1376L9.46302 7.1912C9.45002 7.11746 9.47502 7.04182 9.53302 6.98819L11.766 4.90361Z" fill="#627386"/>
</svg>
